<svg xmlns="http://www.w3.org/2000/svg" viewBox="0 0 64 64" width="64" height="64">
  <rect width="64" height="64" rx="14" fill="#d32f2f" />
  <g transform="translate(8, 8) scale(2)" fill="none" stroke="white" stroke-width="2" stroke-linecap="round" stroke-linejoin="round">
    <path d="M17.8 19.2 16 11l3.5-3.5C21 6 21.5 4 21 3c-1-.5-3 0-4.5 1.5L13 8 4.8 6.2c-.5-.1-.9.2-1.1.5l-1.3 1.6c-.3.4-.1 1 .4 1.2L9 12l-3 3-2.6-.9c-.4-.1-.8.1-1 .5l-.8 1.1c-.2.3 0 .7.3.9l3.4 1.5 1.5 3.4c.2.3.6.5.9.3l1.1-.8c.4-.2.6-.6.5-1l-.9-2.6 3-3 2.5 6.2c.2.5.8.7 1.2.4l1.6-1.3c.3-.2.6-.6.5-1.1Z"/>
  </g>
</svg>